<svg id="Layer_1" data-name="Layer 1" xmlns="http://www.w3.org/2000/svg" viewBox="0 0 53.11 37.79"><defs><style>.cls-1{fill:none;stroke:#fff;stroke-miterlimit:10;stroke-width:0.75px;}</style></defs><polygon class="cls-1" points="28.03 14.83 27.36 6.78 26.12 6.78 24.88 6.78 24.22 14.83 28.03 14.83"/><path class="cls-1" d="M42.68,28a18.47,18.47,0,0,0-6.61-14.32,16,16,0,0,0-3.55-2.18l-.36-2.34a14.78,14.78,0,0,0-4.7-1.32l.57,7H24.22l.57-7a12,12,0,0,0-4.71,1.34l-.41,2.34a17.53,17.53,0,0,0-9,10.18A19.23,19.23,0,0,0,9.57,28H42.68"/><line class="cls-1" x1="32.16" y1="9.19" x2="33.43" y2="17.36"/><line class="cls-1" x1="18.62" y1="17.36" x2="20.08" y2="9.19"/><path class="cls-1" d="M13.43,20.41s-1.67,2.94-1.54,5.19H22.24"/><path class="cls-1" d="M42.86,28H9.41s-1.51.06-1.5,2.38H44.33C44.35,28.09,42.86,28,42.86,28Z"/></svg>